<?xml version="1.0" standalone="no"?><!DOCTYPE svg PUBLIC "-//W3C//DTD SVG 1.1//EN" "http://www.w3.org/Graphics/SVG/1.1/DTD/svg11.dtd"><svg t="1545190003685" class="icon" style="" viewBox="0 0 1024 1024" version="1.1" xmlns="http://www.w3.org/2000/svg" p-id="26479" xmlns:xlink="http://www.w3.org/1999/xlink" width="128" height="128"><defs><style type="text/css"></style></defs><path d="M915.168135 1005.175029v18.824971H34.316354L539.453083 244.724627H154.717733v-18.824972h419.247797L68.828801 1005.175029z" fill="#1296db" p-id="26480"></path><path d="M915.168135 986.350057v18.824972H68.828801L573.96553 225.899655H154.717733v-18.824971h453.760245L103.733435 986.350057z" fill="#1296db" p-id="26481"></path><path d="M915.168135 967.525086v18.824971H103.733435L608.477978 207.074684H154.717733V188.249713h488.664879L138.245883 967.525086z" fill="#1296db" p-id="26482"></path><path d="M915.168135 948.700115v18.824971H138.245883L643.382612 188.249713H154.717733v-18.824972h523.177326L172.75833 948.700115z" fill="#1296db" p-id="26483"></path><path d="M915.168135 929.875144v18.824971H172.75833L677.895059 169.424741H154.717733v-18.824971h557.689774L207.662964 929.875144z" fill="#1296db" p-id="26484"></path><path d="M915.168135 911.050172v18.824972H207.662964L712.407507 150.59977H154.717733v-18.824971h592.202221L242.175412 911.050172z" fill="#1296db" p-id="26485"></path><path d="M915.168135 892.225201v18.824971H242.175412L746.919954 131.774799h-592.202221v-18.824971h627.106855L276.687859 892.225201z" fill="#1296db" p-id="26486"></path><path d="M915.168135 873.40023v18.824971H276.687859L781.824588 112.949828H154.717733V94.124856h661.619303L311.200306 873.40023z" fill="#1296db" p-id="26487"></path><path d="M915.168135 854.575259v18.824971h-603.967829L816.337036 94.124856H154.717733v-18.824971h696.13175L346.104941 854.575259z" fill="#1296db" p-id="26488"></path><path d="M915.168135 835.750287v18.824972H346.104941L850.849483 75.299885H154.717733v-18.824971h731.036384L380.617388 835.750287z" fill="#1296db" p-id="26489"></path><path d="M915.168135 816.925316v18.824971H380.617388L885.754117 56.474914H154.717733V37.649943h765.548832L415.129835 816.925316z" fill="#1296db" p-id="26490"></path><path d="M915.168135 779.275373v18.824972H450.03447L954.779012 18.824971h-800.061279V0h834.965913L484.546917 779.275373z" fill="#1296db" p-id="26491"></path><path d="M915.168135 798.100345v18.824971H415.129835L920.266565 37.649943H154.717733V18.824971h800.061279L450.03447 798.100345z" fill="#1296db" p-id="26492"></path></svg>